<svg width="18" height="17" viewBox="0 0 18 17" fill="none" xmlns="http://www.w3.org/2000/svg">
                            <path fill-rule="evenodd" clip-rule="evenodd" d="M8.8695 13.96C9.00194 13.8772 9.15498 13.8333 9.31116 13.8333H15.6665C16.587 13.8333 17.3332 13.0871 17.3332 12.1667V2.16667C17.3332 1.24619 16.587 0.5 15.6665 0.5H2.33317C1.4127 0.5 0.666504 1.24619 0.666504 2.16667V12.1667C0.666504 13.0871 1.4127 13.8333 2.33317 13.8333H3.1665C3.62674 13.8333 3.99984 14.2064 3.99984 14.6667V15.5C3.99984 16.1545 4.7198 16.5536 5.27484 16.2067L8.8695 13.96ZM6.304 13.598C6.02648 13.7715 5.6665 13.572 5.6665 13.2447V12.5833C5.6665 12.3532 5.47996 12.1667 5.24984 12.1667H2.74984C2.51972 12.1667 2.33317 11.9801 2.33317 11.75V2.58333C2.33317 2.35321 2.51972 2.16667 2.74984 2.16667H15.2498C15.48 2.16667 15.6665 2.35321 15.6665 2.58333V11.75C15.6665 11.9801 15.48 12.1667 15.2498 12.1667H8.71367C8.63558 12.1667 8.55906 12.1886 8.49284 12.23L6.304 13.598Z" fill="#d53030"/>
                        </svg>